<?xml version="1.0" encoding="UTF-8"?>
<!DOCTYPE svg PUBLIC "-//W3C//DTD SVG 1.1//EN" "http://www.w3.org/Graphics/SVG/1.1/DTD/svg11.dtd">
<!-- Creator: CorelDRAW 2019 (64-Bit) -->
<svg xmlns="http://www.w3.org/2000/svg" xml:space="preserve" width="128.66mm" height="33.3183mm" version="1.1" style="shape-rendering:geometricPrecision; text-rendering:geometricPrecision; image-rendering:optimizeQuality; fill-rule:evenodd; clip-rule:evenodd"
viewBox="0 0 14752.38 3820.35"
 xmlns:xlink="http://www.w3.org/1999/xlink"
 xmlns:xodm="http://www.corel.com/coreldraw/odm/2003">
 <defs>
  <style type="text/css">
   <![CDATA[
    .fil3 {fill:#F58634}
    .fil2 {fill:#00A859}
    .fil1 {fill:#F58634;fill-rule:nonzero}
    .fil0 {fill:#00A859;fill-rule:nonzero}
   ]]>
  </style>
 </defs>
 <g id="Layer_x0020_1">
  <metadata id="CorelCorpID_0Corel-Layer"/>
  <path class="fil0" d="M4941.53 2760.62l0 -126.86c126.36,-9.49 197.2,-17.44 212.51,-24.84 11.65,-5.3 19.58,-12.18 24.86,-20.09 10.04,-14.8 18.51,-45.48 24.85,-93.58 11.09,-81.43 17.44,-232.6 18.51,-453.58l1.58 -585.76c0,-186.6 -2.65,-342.55 -8.46,-467.88 -5.81,-125.29 -13.74,-198.24 -24.32,-218.87 -5.81,-13.74 -16.39,-23.76 -30.66,-31.15 -21.67,-10.59 -94.62,-18.01 -218.87,-23.28l0 -126.86c186.62,6.32 352.62,9.51 499.06,9.51 175,0 340.46,-3.19 496.95,-9.51l0 126.86c-131.1,9.52 -206.71,20.6 -226.79,34.34 -20.09,13.23 -32.25,46.01 -36.49,97.81 -5.27,65.56 -8.46,326.18 -9.51,782.97l21.67 0c104.15,-83.53 254.29,-224.19 450.42,-421.36 196.13,-197.72 347.85,-362.14 455.16,-493.76l1.61 -56.02 -1.61 -55.52 13.76 -15.32c112.6,6.32 208.28,9.51 287.58,9.51 83.53,0 177.11,-3.19 281.24,-9.51l0 126.86 -88.28 9.52c-70.32,7.41 -115.77,14.8 -136.4,23.24 -41.24,19.07 -96.73,57.64 -166,115.79 -103.08,86.71 -233.67,204.58 -391.2,354.74l-274.38 260.09 142.22 174.99c168.65,206.69 368.99,440.89 602.68,703.11 133.74,152.8 214.09,236.86 240.53,252.72 18.51,10.02 67.67,18.48 146.97,24.84l0 126.86 -81.95 -2.6 -275.43 -6.88c-74.03,0 -169.69,3.14 -287.58,9.48 -83.53,-107.31 -224.69,-279.1 -423.99,-515.96 -148.56,-177.11 -290.77,-338.31 -425.56,-483.2 -17.46,-18.48 -29.63,-29.08 -36.49,-32.22 -6.34,-2.14 -12.15,-3.21 -18.51,-3.21 -15.34,0 -25.91,6.35 -31.73,18.53 -3.16,8.44 -4.75,49.71 -4.75,124.21l6.35 471.07c2.09,137.96 7.38,217.26 16.9,237.86 6.34,14.84 16.39,24.88 31.2,31.22 20.62,9.48 93.58,17.44 218.33,24.84l0 126.86c-153.3,-6.34 -323.01,-9.48 -509.64,-9.48 -94.08,0 -256.38,3.14 -486.36,9.48z"/>
  <path class="fil0" d="M7408.77 2760.62l0 -126.86c120.01,-10.56 188.2,-20.09 206.19,-29.63 11.09,-6.32 19.55,-15.82 24.32,-29.57 10.56,-24.87 17.97,-108.38 21.67,-251.66 5.27,-221.52 7.92,-395.95 7.92,-523.35 0,-172.36 -2.11,-390.69 -6.34,-656.05 -4.23,-197.75 -13.75,-318.81 -29.09,-363.72 -4.21,-13.21 -12.67,-23.82 -24.82,-30.7 -16.4,-10.55 -83,-22.2 -199.84,-34.34l0 -126.86c213.58,6.32 351.57,9.51 413.4,9.51l776.6 -9.51c168.13,0 290.77,16.39 367.95,48.62 76.65,32.27 137.98,84.57 182.92,155.95 44.95,71.9 67.15,155.95 67.15,252.68 0,123.73 -35.95,232.12 -107.85,325.16 -71.38,93.55 -196.13,176.04 -373.76,247.95l328.83 499.03 256.41 382.2c49.14,62.38 85.63,100.46 109.43,113.14 23.78,13.22 62.9,20.08 116.82,21.16l0 117.38 -90.93 1.56c-262.22,1.58 -430.33,4.25 -505.94,7.92 -89.85,-143.77 -224.13,-352.06 -403.36,-624.87l-319.3 -484.76c9.52,-17.46 16.9,-35.41 23.25,-54.45 41.24,4.23 71.9,6.35 91.99,6.35 96.2,0 190.84,-38.62 283.89,-116.31 93.58,-77.72 140.09,-188.2 140.09,-331.99 0,-125.28 -37.01,-222.04 -111.02,-291.3 -74.03,-69.24 -185.03,-104.14 -332.52,-104.14 -47.06,0 -110.5,3.16 -190.86,9.48l-9.53 458.4 -12.67 581.52c0,131.61 5.27,299.72 15.32,504.85 8.46,154.39 16.4,241.07 24.32,259.58 6.35,13.75 17.44,24.3 33.83,32.76 21.69,12.67 91.47,21.67 208.82,28.02l0 126.86c-185.02,-6.34 -349.43,-9.48 -492.18,-9.48 -152.79,0 -316.14,3.14 -491.12,9.48z"/>
  <path class="fil0" d="M12161.95 2352.54l49.71 101.99c-105.23,104.71 -201.95,208.85 -289.72,312.97 -67.12,16.4 -128.98,24.88 -186.09,24.88 -183.96,0 -375.35,-72.98 -574.64,-218.87 -104.15,79.25 -206.19,135.34 -306.11,168.62 -99.39,33.3 -210.93,50.24 -333.56,50.24 -222.56,0 -399.14,-59.77 -530.26,-179.78 -131.1,-119.48 -196.67,-267.48 -196.67,-442.99 0,-122.65 33.85,-231.04 101.51,-325.14 67.67,-93.58 198.26,-191.89 392.27,-293.95 -69.26,-150.68 -103.62,-282.29 -103.62,-394.89 0,-63.97 6.88,-116.34 20.09,-156.48 7.4,-22.76 28.01,-52.89 62.38,-89.88l111.54 -122.13c85.11,-95.17 148.56,-152.27 191.38,-172.36 79.3,-36.99 157.53,-55.47 234.19,-55.47 62.4,0 121.61,15.32 178.69,45.43 57.1,30.66 99.92,71.9 129.01,123.19 29.06,51.83 43.33,111.54 43.33,179.76 0,110.45 -38.06,209.84 -113.65,298.17 -75.59,88.26 -205.64,191.38 -390.14,310.32 163.35,251.63 377.97,491.12 643.89,718.45 40.72,-59.75 67.69,-111.05 82.49,-153.35 14.28,-41.75 21.67,-88.78 21.67,-140.6 0,-75.06 -21.16,-151.74 -63.44,-229.98l-77.19 0c-39.1,-1.03 -103.62,1.04 -193.47,6.36l-16.92 -24.87c39.12,-58.15 72.95,-121.59 102.04,-190.83 168.11,8.46 320.37,12.68 456.23,12.68 213.56,0 388.02,-8.46 522.84,-25.37l21.67 15.35c-28.55,75.57 -46.53,148.56 -53.91,219.88l-20.09 18.53c-201.97,-14.8 -349.98,-23.26 -444.08,-25.36 13.21,42.29 20.09,80.33 20.09,114.69 0,158.1 -73.49,321.44 -219.93,490.09 175.52,102.04 340.46,153.31 495.36,153.31 24.31,0 45.98,-4.78 65.02,-13.74 53.4,-28.01 109.43,-64.49 168.11,-108.89zm-1579.09 -968c113.66,-74.54 192.43,-144.84 236.31,-212 44.4,-66.6 66.61,-132.69 66.61,-197.71 0,-41.24 -8.46,-78.76 -24.84,-112.62 -16.92,-33.8 -41.77,-60.23 -75.07,-79.8 -33.31,-19.57 -63.44,-29.59 -90.41,-29.59 -45.99,0 -93.05,19.57 -140.61,58.15 -48.12,39.12 -71.9,100.43 -71.9,183.96 0,115.77 33.31,245.85 99.92,389.62zm-230.51 295c-115.77,74.53 -173.92,180.78 -173.92,319.31 0,151.7 56.56,286.52 169.17,404.44 113.13,117.85 239.48,176.56 379.58,176.56 97.28,0 198.25,-34.88 302.91,-105.2 -146.45,-120.03 -269.62,-239.51 -370.59,-357.92 -100.97,-118.94 -203.54,-264.33 -307.16,-437.18z"/>
  <path class="fil0" d="M12449.53 2760.62l0 -79.3c71.92,-41.22 122.67,-72.4 152.79,-93.01 14.28,-181.34 21.67,-520.75 21.67,-1018.74 0,-215.14 -2.11,-395.44 -6.88,-540.27 -4.75,-144.86 -11.63,-227.33 -20.59,-247.96 -4.23,-10.03 -10.58,-17.99 -20.09,-23.24 -15.34,-7.96 -90.41,-20.63 -225.21,-37.04l0 -133.19c155.95,6.32 334.64,9.51 537.11,9.51l762.32 -9.51c277.54,0 488.47,34.87 632.27,105.18 143.79,70.3 257.99,177.63 342.56,322.5 84.57,144.3 126.9,319.82 126.9,525.98 0,265.43 -66.1,494.33 -198.27,686.21 -132.14,192.43 -293.4,328.83 -483.7,410.8 -189.8,81.4 -392.79,122.08 -609.03,122.08l-587.32 -9.48c-94.11,0 -235.25,3.14 -424.53,9.48zm628.04 -190.32c87.24,14.81 176.06,22.23 266.99,22.23 231.02,0 407.06,-32.78 528.11,-98.86 121.08,-66.09 219.39,-173.92 294.46,-324.06 75.08,-149.6 112.62,-334.13 112.62,-552.45 0,-287.61 -74.55,-506.47 -223.63,-657.15 -131.63,-133.74 -346.27,-200.87 -644.44,-200.87 -64.51,0 -175.52,5.27 -334.13,15.83l-12.67 964.29c0,405.48 4.23,682.48 12.67,831.04z"/>
  <path class="fil1" d="M5562.76 3673.97l12.43 11.42c-8.53,16.68 -16.02,33.54 -22.47,50.91 -38.66,20.09 -75.94,34.2 -111.68,42.56 -35.74,8.32 -76.94,12.56 -123.59,12.56 -87.32,0 -161.03,-15.32 -221.29,-45.78 -60.44,-30.63 -106.74,-73.69 -139.26,-129.19 -32.51,-55.49 -48.67,-119.16 -48.67,-191 0,-103.35 36.59,-188.1 109.96,-254.14 73.38,-65.91 174.66,-98.94 303.69,-98.94 42.88,0 85.29,3.77 127.33,11.43 42.22,7.66 83.91,19.41 125.46,34.89l3.57 7.51c-5.95,18.01 -10.2,35.2 -12.43,51.91 -4.43,28.95 -7.66,64.86 -10.04,107.74l-42.9 0c-2.04,-52.57 -3.91,-81.35 -5.96,-86.63 -2.03,-5.1 -11.23,-13.99 -27.39,-26.38 -16.34,-12.61 -38.3,-22.63 -66.23,-30.47 -27.75,-7.87 -58.39,-11.76 -91.92,-11.76 -79.84,0 -143.33,24.7 -190.32,73.89 -47.14,49.18 -70.63,117.8 -70.63,205.64 0,95.14 28.41,172.12 85.11,230.98 52.24,54.67 124.08,81.89 215.5,81.89 35.41,0 68.43,-3.54 99.41,-10.89 30.82,-7.3 64.86,-19.91 102.32,-38.13z"/>
  <path class="fil1" d="M6025.42 3791.42c-122.72,0 -216.7,-31.49 -281.91,-94.45 -65.17,-63 -97.69,-149.62 -97.69,-260.15 0,-77.08 15.83,-142.64 47.32,-196.61 31.67,-54.12 75.4,-95.49 131.41,-124.42 56.18,-28.93 128.18,-43.43 216.37,-43.43 84.78,0 154.06,13.99 208.02,41.74 53.8,27.75 95.33,66.23 124.44,115.58 29.1,49.37 43.57,109.98 43.57,181.81 0,77.81 -16.01,145.04 -47.83,201.74 -32,56.68 -76.94,100.6 -135,131.59 -58.05,31.13 -127.66,46.61 -208.71,46.61zm19.07 -54.13c67.08,0 120.52,-24.65 160.36,-74.05 40.02,-49.35 59.93,-124.44 59.93,-225.04 0,-105.68 -22.81,-186.92 -68.61,-243.42 -37.1,-45.48 -94.14,-68.28 -171.25,-68.28 -72.18,0 -128.01,23.85 -167.51,71.35 -39.66,47.47 -59.4,120.69 -59.4,219.42 0,70.96 10.89,131.23 32.52,180.6 21.77,49.39 49.34,84.95 82.88,106.75 33.54,21.76 77.29,32.66 131.08,32.66z"/>
  <path class="fil1" d="M6491.52 3781.22l0 -40.85c40.35,-1.7 64.03,-4.44 70.99,-7.98 4.6,-2.76 8,-6.99 10.39,-12.93 3.58,-8.04 5.96,-36.28 6.81,-84.62 1.87,-80.02 2.72,-140.46 2.72,-181.14l-1.01 -211.76c0,-56 -1.71,-88.34 -5.45,-97 -1.88,-4.94 -5.1,-8.7 -9.38,-10.92 -6.64,-4.09 -31.65,-7.81 -75.07,-11.56l0 -40.88c51.75,2.06 90.23,3.07 115.09,3.07 27.56,0 58.9,-1.01 93.95,-3.07 76.79,97.86 163.59,204.27 260.46,318.86 64.52,76.77 120.02,139.92 166.82,189.94l0 -198.29c0,-75.26 -0.67,-140.09 -2.02,-194.59 -1.39,-32.33 -3.92,-52.26 -8.03,-59.57 -2.02,-3.92 -5.61,-6.81 -10.88,-8.51 -5.46,-1.69 -28.78,-3.93 -69.98,-6.97l0 -40.88c36.11,2.06 72.02,3.07 107.94,3.07 49.02,0 93.29,-1.01 133.1,-3.07l0 40.88c-37.09,2.36 -59.38,4.91 -66.89,7.98 -4.4,1.71 -7.82,3.91 -10.56,6.99 -2.53,3.07 -4.59,6.79 -5.94,11.57 -2.22,7.98 -3.59,33.54 -3.92,76.93l-1.54 200.02 -1.02 201.4c0,54.14 1.02,108.07 3.07,162.05l-6.48 6.99c-40.51,-7.35 -68.92,-12.11 -85.63,-14.49 -85.45,-94.63 -188.6,-213.63 -309.47,-356.62 -61.11,-72.51 -110.31,-133.46 -147.91,-182.81l0 193.89c0,52.73 0.67,116.41 2.03,190.83 1.02,54.77 3.24,86.47 6.98,94.77 1.36,3.59 3.75,6.5 7.3,8.36 6.31,3.74 30.13,6.97 71.51,10.04l0 40.85c-53.44,-2.04 -91.75,-3.05 -114.73,-3.05 -19.24,0 -60.27,1.01 -123.26,3.05z"/>
  <path class="fil1" d="M7379.13 3570.66l42.88 0c0.33,49.18 1.87,78.12 4.77,86.63 2.89,8.51 12.43,19.6 28.77,33.39 16.35,13.76 37.44,25.03 63.49,33.66 25.88,8.71 52.61,12.95 80.01,12.95 46.99,0 84.43,-12.41 112.69,-37.44 28.1,-24.84 42.22,-56.01 42.22,-93.11 0,-34.41 -9.36,-60.6 -27.92,-78.82 -18.88,-18.39 -54.81,-31.33 -107.75,-38.99 -78.47,-11.23 -131.43,-23.47 -158.82,-36.93 -27.42,-13.29 -49.04,-33.22 -64.88,-59.76 -15.82,-26.7 -23.64,-58.57 -23.64,-95.85 0,-62.45 21.96,-115.58 65.87,-158.98 44.09,-43.41 114.22,-65.06 210.91,-65.06 37.79,0 71.33,2.92 100.77,8.51 29.28,5.64 58.75,14.99 88.37,27.95l4.92 11.89c-5.43,21.13 -9.17,40.02 -11.4,57.03 -2.21,16.88 -4.25,46.14 -5.95,87.85l-42.91 0c-1.7,-51.24 -4.08,-80 -7.49,-86.29 -6.31,-10.92 -22.29,-22.5 -48.01,-34.58 -25.71,-12.1 -55.14,-18.22 -88.16,-18.22 -45.45,0 -80.71,11.06 -105.72,33.23 -25.03,22.11 -37.63,50.54 -37.63,85.42 0,21.28 5.13,39.86 15.5,55.67 10.22,15.67 24.68,27.42 43.07,34.91 18.55,7.46 58.21,15.97 118.98,25.68 55.34,8.18 92.61,16.36 112.35,24.34 32.17,12.93 56.7,32.71 73.2,59.26 16.68,26.72 25.03,60.23 25.03,100.77 0,70.3 -26.9,128.85 -80.69,175.69 -53.97,46.63 -127.5,69.94 -220.79,69.94 -41.53,0 -79.32,-3.92 -113.19,-11.89 -33.87,-8.01 -68.95,-21.11 -105.2,-39.49 5.95,-23.15 9.86,-44.27 11.91,-63.16 2.55,-26.2 4.08,-61.63 4.44,-106.22z"/>
  <path class="fil1" d="M7960.12 3122.45l0 -40.88c67.77,2.06 127.33,3.07 178.57,3.07 32.52,0 78.47,-1.01 138.04,-3.07l0 40.88c-30.64,0 -52.24,2.72 -64.84,7.98 -4.44,1.71 -7.84,4.43 -10.56,8.51 -3.58,4.63 -6.12,12.44 -7.48,23.51 -1.87,18.53 -3.59,72.36 -4.94,160.86 -0.7,61.64 -1.03,124.28 -1.03,187.95 0,52.26 5.97,90.7 17.89,115.21 11.91,24.53 29.28,42.76 52.26,54.65 33,17.02 69.28,25.55 108.25,25.55 53.44,0 94.13,-8.86 122.23,-26.54 28.26,-17.54 47.15,-41.89 56.68,-72.87 9.71,-30.97 14.48,-98.92 14.48,-203.45l-0.52 -184.86c-0.33,-41.69 -2.38,-66.72 -5.97,-75.05 -2.02,-4.61 -5.42,-8.2 -10.53,-10.38 -8.01,-4.77 -32.19,-8.36 -72.87,-11.08l0 -40.88c43.07,2.06 82.91,3.07 119.17,3.07 31.49,0 69.97,-1.01 115.75,-3.07l0 40.88c-33.02,0 -53.63,3.75 -61.8,11.08 -8.16,7.28 -13.11,26.21 -14.8,56.83 -3.74,74.58 -5.79,159 -6.12,253.31 0,60.24 -0.69,99.77 -2.05,118.49 -3.59,45.95 -14.8,85.11 -33.36,117.61 -18.74,32.52 -49.56,59.26 -92.77,80.17 -43.25,20.95 -97.03,31.49 -161.22,31.49 -66.73,0 -122.23,-10.02 -166.48,-29.93 -44.27,-20.09 -75.76,-45.28 -94.31,-75.78 -18.55,-30.47 -27.93,-75.06 -27.93,-134.13l2.05 -224.85c0,-17.89 -0.69,-63.67 -2.05,-137.4 -0.67,-22.97 -3.22,-38.62 -7.48,-46.97 -2.74,-4.59 -6.64,-8.36 -12.27,-10.89 -5.43,-2.72 -26.73,-5.63 -64,-9.02z"/>
  <path class="fil1" d="M8794.41 3781.22l0 -25.51c18.22,-8.71 35.59,-18.93 51.76,-30.47 4.25,-90.41 6.46,-184.57 6.46,-282.42 0,-76.96 -0.85,-149.62 -2.55,-217.9 -1.02,-48.7 -3.24,-76.58 -6.98,-83.93 -1.7,-4.4 -5.1,-7.64 -10.38,-9.86 -5.1,-2.05 -29.47,-4.92 -73.03,-8.67l0 -40.88c64.16,2.06 123.75,3.07 178.74,3.07 53.11,0 103.67,-1.01 151.16,-3.07l0 40.88c-45.45,3.04 -71.65,6.97 -78.65,11.89 -4.25,3.08 -7.3,9.23 -9.18,18.4 -1.89,9.2 -3.24,63.16 -4.27,161.89l-2.9 243.61c0,45.78 1.02,98.54 3.07,158.65 43.4,2.04 75.59,3.05 96.36,3.05 62.64,0 115.25,-5.13 157.96,-15.31 9.04,-30 17.88,-65.71 26.57,-107.27l43.92 0c-7.66,48.5 -14.48,108.78 -20.42,180.8 -31.5,2.05 -60.6,3.05 -87.17,3.05l-180.09 -2.04 -80.71 -1.01c-37.09,-0.36 -90.39,0.7 -159.67,3.05z"/>
  <path class="fil1" d="M9522.48 3781.22l0 -40.85c18.72,0 38.31,-1.7 58.57,-4.95 9.53,-1.66 16.17,-4.38 20.24,-8.32 3.92,-3.72 6.82,-10.71 8.86,-21.09 2.21,-14.3 4.25,-66.77 5.79,-157.49 1.03,-64.52 1.54,-130.23 1.54,-197.31 0,-131.9 -0.36,-198.97 -1.19,-201.51 -0.85,-2.57 -12.61,-3.77 -35.42,-3.77 -46.29,0 -86.13,1.36 -119.67,4.08 -19.24,1.56 -30.12,3.22 -32.67,4.94 -2.56,1.72 -4.43,4.59 -5.79,8.86 -1.35,4.23 -4.09,33.69 -8.53,88.36l-42.88 0c0.69,-64.53 -1.03,-120.03 -5.1,-166.48l5.43 -4.12c104.87,4.78 206.84,7.14 305.91,7.14 98.75,0 209.38,-2.36 331.8,-7.14l5.43 8.16c-6.31,46.16 -10.72,100.26 -13.28,162.43l-41.89 0c-3.05,-56.54 -5.95,-87.36 -9.02,-91.95 -2.2,-3.72 -7.48,-6.27 -15.83,-7.66 -26.54,-4.4 -79.32,-6.64 -158.46,-6.64 -6.64,0 -10.56,1.03 -11.91,3.07 -1.39,2.21 -1.89,11.05 -1.89,26.4l-3.05 335.35c0,97.2 0.85,156.78 2.56,178.88 1.51,22.16 5.61,35.61 11.91,40.2 4.41,3.05 30.47,6.64 78.47,10.54l0 40.85c-48.7,-2.04 -100.43,-3.05 -155.08,-3.05 -71.84,0 -130.05,1.01 -174.84,3.05z"/>
  <path class="fil1" d="M10067.91 3781.22l0 -40.85c44.94,-2.38 70.3,-6.11 76.09,-11.58 5.79,-5.26 9.38,-18.36 10.73,-39.47 2.72,-43.92 4.08,-126 4.08,-246.18 0,-45.95 -0.68,-112.69 -2.05,-200.17 -0.52,-59.61 -1.87,-92.46 -3.9,-98.24 -1.89,-5.79 -5.27,-10.02 -10.22,-12.74 -7.33,-3.75 -32.19,-6.82 -74.74,-9.54l0 -40.88c67.91,2.06 119.84,3.07 155.77,3.07 61.95,0 117.96,-1.01 168,-3.07l0 40.88c-44.76,2.72 -69.96,6.31 -75.75,10.7 -5.79,4.63 -9.37,15.01 -11.06,31.35 -2.72,32 -4.09,96.83 -4.09,194.57 0,130.03 0.52,220.77 1.54,271.99 0.85,51.27 3.92,81.58 8.86,91.26 1.87,4.44 6.12,7.82 12.43,10.23 6.46,2.56 29.1,5.13 68.07,7.82l0 40.85 -58.4 -1.38c-36.76,-1.18 -69.78,-1.67 -98.71,-1.67l-166.66 3.05z"/>
  <path class="fil1" d="M10463.34 3781.22l0 -40.85c40.35,-1.7 64.02,-4.44 70.99,-7.98 4.59,-2.76 7.99,-6.99 10.38,-12.93 3.59,-8.04 5.97,-36.28 6.82,-84.62 1.87,-80.02 2.72,-140.46 2.72,-181.14l-1.01 -211.76c0,-56 -1.71,-88.34 -5.46,-97 -1.87,-4.94 -5.09,-8.7 -9.37,-10.92 -6.64,-4.09 -31.65,-7.81 -75.07,-11.56l0 -40.88c51.75,2.06 90.23,3.07 115.09,3.07 27.56,0 58.9,-1.01 93.95,-3.07 76.78,97.86 163.59,204.27 260.46,318.86 64.52,76.77 120.02,139.92 166.82,189.94l0 -198.29c0,-75.26 -0.67,-140.09 -2.03,-194.59 -1.38,-32.33 -3.92,-52.26 -8.01,-59.57 -2.03,-3.92 -5.61,-6.81 -10.89,-8.51 -5.45,-1.69 -28.77,-3.93 -69.97,-6.97l0 -40.88c36.1,2.06 72.02,3.07 107.94,3.07 49.02,0 93.29,-1.01 133.1,-3.07l0 40.88c-37.1,2.36 -59.4,4.91 -66.89,7.98 -4.41,1.71 -7.82,3.91 -10.56,6.99 -2.53,3.07 -4.59,6.79 -5.94,11.57 -2.24,7.98 -3.59,33.54 -3.92,76.93l-1.54 200.02 -1.02 201.4c0,54.14 1.02,108.07 3.07,162.05l-6.49 6.99c-40.5,-7.35 -68.92,-12.11 -85.62,-14.49 -85.45,-94.63 -188.6,-213.63 -309.47,-356.62 -61.11,-72.51 -110.31,-133.46 -147.91,-182.81l0 193.89c0,52.73 0.67,116.41 2.02,190.83 1.03,54.77 3.26,86.47 6.99,94.77 1.36,3.59 3.75,6.5 7.3,8.36 6.31,3.74 30.13,6.97 71.51,10.04l0 40.85c-53.46,-2.04 -91.75,-3.05 -114.73,-3.05 -19.25,0 -60.27,1.01 -123.26,3.05z"/>
  <path class="fil1" d="M11777.87 3536.08l0 -40.84c60.59,1.36 114.57,2.05 162.22,2.05 43.92,0 91.24,-0.69 142.15,-2.05l0 32.33c-14.65,4.59 -28.6,10.07 -41.89,16.35 -4.07,33.54 -6.12,62.15 -6.12,85.78 0,16.88 2.05,50.42 6.12,100.62 -65.87,23.83 -121.04,39.99 -165.46,48.55 -44.25,8.32 -90.4,12.56 -137.87,12.56 -128.36,0 -228.98,-33.36 -301.66,-99.93 -72.68,-66.69 -108.94,-153.01 -108.94,-259.08 0,-109.11 37.1,-196.28 111.14,-261.82 74.23,-65.52 180.63,-98.23 319.19,-98.23 49.04,0 95.86,3.77 140.79,11.43 44.76,7.66 87.5,19.41 128.18,34.89l4.43 7.51c-9.7,42.2 -16.86,94.81 -21.44,157.61l-42.91 0c-0.34,-31.51 -2.55,-59.38 -6.47,-83.6 -21.28,-24.68 -48.67,-43.04 -82.06,-55.29 -33.36,-12.29 -72.83,-18.41 -118.47,-18.41 -85.45,0 -153.37,25.88 -204.1,77.83 -50.73,51.88 -76.09,122.7 -76.09,212.94 0,96.02 26.72,173.3 80.17,232.02 53.44,58.75 119.34,87.99 197.46,87.99 41.7,0 85.99,-10.2 132.95,-30.63 2.73,-25.55 4.09,-49.71 4.09,-72.54 0,-51.06 -3.07,-79.32 -9.02,-84.6 -5.96,-5.25 -41.37,-9.84 -106.4,-13.45z"/>
  <path class="fil1" d="M12454.04 3781.22l0 -25.51c18.21,-8.71 35.58,-18.93 51.75,-30.47 4.25,-90.41 6.46,-184.57 6.46,-282.42 0,-76.96 -0.84,-149.62 -2.53,-217.9 -1.02,-48.7 -3.26,-76.58 -6.99,-83.93 -1.69,-4.4 -5.1,-7.64 -10.38,-9.86 -5.1,-2.05 -29.46,-4.92 -73.02,-8.67l0 -40.88c64.15,2.06 123.74,3.07 178.74,3.07 53.11,0 103.65,-1.01 151.16,-3.07l0 40.88c-45.45,3.04 -71.66,6.97 -78.66,11.89 -4.25,3.08 -7.3,9.23 -9.17,18.4 -1.89,9.2 -3.24,63.16 -4.28,161.89l-2.89 243.61c0,45.78 1.02,98.54 3.07,158.65 43.4,2.04 75.57,3.05 96.35,3.05 62.65,0 115.25,-5.13 157.96,-15.31 9.05,-30 17.89,-65.71 26.57,-107.27l43.92 0c-7.66,48.5 -14.47,108.78 -20.42,180.8 -31.49,2.05 -60.59,3.05 -87.15,3.05l-180.1 -2.04 -80.7 -1.01c-37.1,-0.36 -90.39,0.7 -159.67,3.05z"/>
  <path class="fil1" d="M13182.11 3781.22l0 -40.85c18.72,0 38.3,-1.7 58.57,-4.95 9.53,-1.66 16.17,-4.38 20.24,-8.32 3.92,-3.72 6.81,-10.71 8.86,-21.09 2.2,-14.3 4.25,-66.77 5.79,-157.49 1.02,-64.52 1.54,-130.23 1.54,-197.31 0,-131.9 -0.36,-198.97 -1.2,-201.51 -0.85,-2.57 -12.6,-3.77 -35.41,-3.77 -46.3,0 -86.13,1.36 -119.67,4.08 -19.24,1.56 -30.13,3.22 -32.67,4.94 -2.57,1.72 -4.44,4.59 -5.79,8.86 -1.36,4.23 -4.1,33.69 -8.53,88.36l-42.9 0c0.7,-64.53 -1.02,-120.03 -5.09,-166.48l5.42 -4.12c104.87,4.78 206.84,7.14 305.92,7.14 98.75,0 209.37,-2.36 331.79,-7.14l5.43 8.16c-6.29,46.16 -10.71,100.26 -13.27,162.43l-41.9 0c-3.05,-56.54 -5.94,-87.36 -9.01,-91.95 -2.2,-3.72 -7.49,-6.27 -15.83,-7.66 -26.54,-4.4 -79.32,-6.64 -158.46,-6.64 -6.64,0 -10.56,1.03 -11.92,3.07 -1.38,2.21 -1.89,11.05 -1.89,26.4l-3.05 335.35c0,97.2 0.85,156.78 2.57,178.88 1.51,22.16 5.61,35.61 11.91,40.2 4.4,3.05 30.47,6.64 78.47,10.54l0 40.85c-48.71,-2.04 -100.43,-3.05 -155.08,-3.05 -71.85,0 -130.06,1.01 -174.84,3.05z"/>
  <path class="fil1" d="M13761.24 3781.22l0 -25.51c23.14,-13.3 39.48,-23.32 49.19,-29.97 4.59,-58.37 6.97,-167.69 6.97,-328.03 0,-69.3 -0.67,-127.37 -2.2,-173.98 -1.54,-46.67 -3.75,-73.22 -6.64,-79.83 -1.36,-3.26 -3.41,-5.79 -6.48,-7.53 -4.93,-2.53 -29.11,-6.62 -72.51,-11.89l0 -42.91c50.21,2.06 107.76,3.07 172.95,3.07l245.47 -3.07c89.37,0 157.29,11.26 203.61,33.89 46.3,22.65 83.07,57.2 110.31,103.84 27.23,46.47 40.87,102.99 40.87,169.38 0,85.45 -21.29,159.14 -63.84,220.93 -42.56,61.97 -94.47,105.89 -155.76,132.29 -61.13,26.21 -126.48,39.32 -196.11,39.32l-189.12 -3.05c-30.32,0 -75.77,1.01 -136.69,3.05zm202.22 -61.28c28.09,4.78 56.68,7.14 85.96,7.14 74.4,0 131.08,-10.56 170.08,-31.82 38.96,-21.29 70.63,-56.04 94.81,-104.38 24.17,-48.17 36.26,-107.59 36.26,-177.89 0,-92.58 -24.01,-163.08 -72.02,-211.59 -42.38,-43.07 -111.5,-64.67 -207.5,-64.67 -20.78,0 -56.52,1.67 -107.59,5.1l-4.09 310.48c0,130.59 1.39,219.77 4.09,267.61z"/>
  <path class="fil2" d="M1012.9 1412.39l-1012.89 2407.96 754.17 -59.11c1570.43,-308.41 2248.12,-1108.12 2572.7,-2249.78 -230.1,510.71 -1461.06,1826.59 -2548.9,1752.89l678.32 -1612.66 -443.4 -239.31z"/>
  <path class="fil2" d="M1028.51 1360.97l457.53 227.05 268.77 -691.57c517.4,485.34 1082.29,997.19 73.32,1932.45 633.91,-317.48 1148.14,-876.43 1146.98,-1133.56l-1391.32 -1695.34 -555.26 1360.97z"/>
  <path class="fil3" d="M2914.97 2579.59l315.07 -456.49 1097.72 1644.47 -3244.13 5.52c360.69,-94.69 706.77,-215.69 1012.46,-409.26l1323.59 0.49 -504.71 -784.73z"/>
 </g>
</svg>
