<?xml version="1.0" encoding="UTF-8"?>
<!DOCTYPE svg PUBLIC "-//W3C//DTD SVG 1.1//EN" "http://www.w3.org/Graphics/SVG/1.1/DTD/svg11.dtd">
<!-- Creator: CorelDRAW 2019 (64-Bit) -->
<svg xmlns="http://www.w3.org/2000/svg" xml:space="preserve" width="65.6594mm" height="57.9612mm" version="1.1" style="shape-rendering:geometricPrecision; text-rendering:geometricPrecision; image-rendering:optimizeQuality; fill-rule:evenodd; clip-rule:evenodd"
viewBox="0 0 5689.04 5022.03"
 xmlns:xlink="http://www.w3.org/1999/xlink"
 xmlns:xodm="http://www.corel.com/coreldraw/odm/2003">
 <defs>
  <style type="text/css">
   <![CDATA[
    .fil1 {fill:#F58634}
    .fil0 {fill:#00A859}
   ]]>
  </style>
 </defs>
 <g id="Layer_x0020_1">
  <metadata id="CorelCorpID_0Corel-Layer"/>
  <path class="fil0" d="M1331.5 1856.65l-1331.5 3165.38 991.4 -77.69c2064.41,-405.42 2955.28,-1456.68 3381.95,-2957.45 -302.49,671.34 -1920.65,2401.14 -3350.66,2304.25l891.69 -2119.91 -582.88 -314.58z"/>
  <path class="fil0" d="M1352.02 1789.06l601.44 298.47 353.3 -909.1c680.15,638 1422.72,1310.87 96.37,2540.29 833.31,-417.32 1509.28,-1152.11 1507.76,-1490.11l-1828.96 -2228.61 -729.92 1789.06z"/>
  <path class="fil1" d="M3831.86 3391l414.17 -600.09 1443.01 2161.74 -4264.56 7.26c474.15,-124.47 929.07,-283.54 1330.92,-537.99l1739.93 0.64 -663.46 -1031.56z"/>
 </g>
</svg>
